<svg width="600" height="900" viewBox="0 0 600 900" fill="none" xmlns="http://www.w3.org/2000/svg">
<defs>
  <linearGradient id="g4" x1="0" y1="0" x2="1" y2="1">
    <stop stop-color="#f0f8ff"/>
    <stop offset="1" stop-color="#dff3ff"/>
  </linearGradient>
</defs>
<rect width="600" height="900" fill="url(#g4)"/>
<circle cx="160" cy="200" r="110" fill="#d7eaff"/>
<circle cx="420" cy="230" r="140" fill="#cde4ff" opacity="0.7"/>
<rect x="100" y="380" width="400" height="330" rx="140" fill="#0f1017"/>
<rect x="190" y="420" width="220" height="140" rx="70" fill="#f7fbff"/>
<rect x="200" y="560" width="200" height="120" rx="34" fill="#d8eaff"/>
<rect x="120" y="650" width="120" height="190" rx="38" fill="#e7f3ff"/>
<rect x="360" y="650" width="120" height="190" rx="38" fill="#e7f3ff"/>
<rect x="150" y="130" width="300" height="230" rx="120" fill="#f07fb3"/>
<rect x="175" y="150" width="250" height="190" rx="110" fill="#ffeef6"/>
<circle cx="260" cy="255" r="24" fill="#2e2e2e"/>
<circle cx="350" cy="255" r="24" fill="#2e2e2e"/>
<rect x="265" y="295" width="80" height="18" rx="9" fill="#f07fb3"/>
<path d="M180 180C220 145 270 125 320 125C370 125 420 145 460 180C420 125 370 100 320 100C270 100 220 125 180 180Z" fill="#ea5f9f"/>
<text x="300" y="790" text-anchor="middle" font-family="Arial, sans-serif" font-size="32" fill="#6a5df0" opacity="0.8">sample</text>
</svg>
