<svg width="600" height="900" viewBox="0 0 600 900" fill="none" xmlns="http://www.w3.org/2000/svg">
<defs>
  <linearGradient id="g3" x1="0" y1="0" x2="1" y2="1">
    <stop stop-color="#fff6ec"/>
    <stop offset="1" stop-color="#ffe6d5"/>
  </linearGradient>
</defs>
<rect width="600" height="900" fill="url(#g3)"/>
<circle cx="300" cy="260" r="160" fill="#ffe0c2" opacity="0.5"/>
<rect x="120" y="360" width="360" height="340" rx="130" fill="#111418"/>
<rect x="190" y="400" width="220" height="150" rx="70" fill="#fff4e8"/>
<rect x="200" y="560" width="200" height="120" rx="36" fill="#ffd7b1"/>
<rect x="120" y="640" width="120" height="210" rx="40" fill="#ffe9d6"/>
<rect x="360" y="640" width="120" height="210" rx="40" fill="#ffe9d6"/>
<rect x="150" y="120" width="300" height="240" rx="130" fill="#ffb68d"/>
<rect x="172" y="142" width="256" height="200" rx="110" fill="#fff3ea"/>
<circle cx="260" cy="255" r="24" fill="#313131"/>
<circle cx="350" cy="255" r="24" fill="#313131"/>
<rect x="265" y="297" width="80" height="18" rx="9" fill="#ffb68d"/>
<path d="M190 175C230 140 270 120 320 120C370 120 410 140 450 175C410 120 370 95 320 95C270 95 230 120 190 175Z" fill="#ff9865"/>
<text x="300" y="790" text-anchor="middle" font-family="Arial, sans-serif" font-size="32" fill="#d07b48" opacity="0.8">sample</text>
</svg>
