<svg xmlns="http://www.w3.org/2000/svg" width="800" height="420" viewBox="0 0 800 420">
  <defs>
    <linearGradient id="bg" x1="0" y1="0" x2="1" y2="1">
      <stop offset="0" stop-color="#fffaf7"/>
      <stop offset="1" stop-color="#f4f7fb"/>
    </linearGradient>
    <linearGradient id="table" x1="0" y1="0" x2="1" y2="0">
      <stop offset="0" stop-color="#f0e3f2"/>
      <stop offset="1" stop-color="#e2eef7"/>
    </linearGradient>
  </defs>
  <rect width="800" height="420" fill="url(#bg)"/>
  <rect x="40" y="250" width="720" height="120" rx="18" fill="url(#table)"/>
  <rect x="120" y="170" width="200" height="140" rx="12" fill="#fff" stroke="#e5dbe8"/>
  <rect x="340" y="150" width="200" height="170" rx="14" fill="#fff" stroke="#e5e5e5"/>
  <rect x="560" y="160" width="120" height="160" rx="12" fill="#fff" stroke="#e6dcd4"/>
  <rect x="370" y="190" width="140" height="100" rx="10" fill="#f8f8f8"/>
  <text x="440" y="250" text-anchor="middle" font-family="Georgia, serif" font-size="26" fill="#9d7bb0">Welcome</text>
  <text x="440" y="275" text-anchor="middle" font-family="Arial, sans-serif" font-size="14" fill="#9d7bb0">To Our Wedding</text>
  <circle cx="170" cy="310" r="16" fill="#d4e9d7"/>
  <circle cx="620" cy="310" r="14" fill="#f2d3c4"/>
  <circle cx="660" cy="320" r="12" fill="#cfe0f1"/>
  <path d="M90 300c30-10 60-30 90-28 30 2 60 26 90 22 30-4 60-36 90-34s60 36 90 34c30-2 60-38 90-36 30 2 60 40 90 44 30 4 60-24 80-36" stroke="#d8d8d8" stroke-width="2" fill="none" opacity=".5"/>
</svg>
